<svg xmlns="http://www.w3.org/2000/svg" viewBox="0 0 512 512">
  <defs>
    <linearGradient id="bg" x1="0%" y1="0%" x2="100%" y2="100%">
      <stop offset="0%" stop-color="#1a0f02"/>
      <stop offset="100%" stop-color="#0d0700"/>
    </linearGradient>
    <linearGradient id="gold" x1="0%" y1="0%" x2="0%" y2="100%">
      <stop offset="0%" stop-color="#fffbe8"/>
      <stop offset="30%" stop-color="#f5d060"/>
      <stop offset="60%" stop-color="#c8920e"/>
      <stop offset="100%" stop-color="#7a4e08"/>
    </linearGradient>
    <linearGradient id="border" x1="0%" y1="0%" x2="100%" y2="100%">
      <stop offset="0%" stop-color="#c8920e"/>
      <stop offset="50%" stop-color="#f5d060"/>
      <stop offset="100%" stop-color="#c8920e"/>
    </linearGradient>
  </defs>
  <rect width="512" height="512" rx="80" fill="url(#bg)"/>
  <rect x="14" y="14" width="484" height="484" rx="70" fill="none" stroke="url(#border)" stroke-width="5" opacity="0.6"/>
  <rect x="30" y="30" width="452" height="452" rx="58" fill="none" stroke="#c8920e" stroke-width="1.5" opacity="0.25"/>
  <polygon points="60,58 68,74 60,90 52,74" fill="#c8920e" opacity="0.65"/>
  <polygon points="452,58 460,74 452,90 444,74" fill="#c8920e" opacity="0.65"/>
  <polygon points="60,422 68,438 60,454 52,438" fill="#c8920e" opacity="0.65"/>
  <polygon points="452,422 460,438 452,454 444,438" fill="#c8920e" opacity="0.65"/>
  <line x1="90" y1="158" x2="422" y2="158" stroke="#c8920e" stroke-width="1.5" opacity="0.45"/>
  <line x1="90" y1="354" x2="422" y2="354" stroke="#c8920e" stroke-width="1.5" opacity="0.45"/>
  <polygon points="256,136 263,152 256,168 249,152" fill="#c8920e" opacity="0.55"/>
  <text x="256" y="298" font-family="Georgia, 'Times New Roman', serif" font-size="92" font-weight="bold" text-anchor="middle" letter-spacing="5" fill="url(#gold)">BIBLION</text>
  <text x="256" y="338" font-family="Georgia, serif" font-size="24" text-anchor="middle" letter-spacing="5" fill="#c8920e" opacity="0.72">JUEGO BÍBLICO</text>
  <polygon points="256,372 263,388 256,404 249,388" fill="#c8920e" opacity="0.5"/>
</svg>
